<svg width="71" height="54" viewBox="0 0 71 54" fill="none" xmlns="http://www.w3.org/2000/svg">
<g id="bed">
<path id="Vector" d="M8.69873 7.025C8.69873 5.69229 9.22815 4.41416 10.1705 3.47179C11.1129 2.52942 12.391 2 13.7237 2H57.2737C58.6065 2 59.8846 2.52942 60.8269 3.47179C61.7693 4.41416 62.2987 5.69229 62.2987 7.025V25.45H8.69873V7.025Z" stroke="#484848" stroke-width="3" stroke-linecap="round" stroke-linejoin="round"/>
<path id="Vector_2" d="M5.35059 45.5503V52.2503" stroke="#484848" stroke-width="3" stroke-linecap="round" stroke-linejoin="round"/>
<path id="Vector_3" d="M65.6494 45.5503V52.2503" stroke="#484848" stroke-width="3" stroke-linecap="round" stroke-linejoin="round"/>
<path id="Vector_4" d="M43.8756 17.0747H27.1256C25.7929 17.0747 24.5147 17.6041 23.5724 18.5465C22.63 19.4889 22.1006 20.767 22.1006 22.0997V25.4497H48.9006V22.0997C48.9006 20.767 48.3712 19.4889 47.4288 18.5465C46.4864 17.6041 45.2083 17.0747 43.8756 17.0747Z" stroke="#484848" stroke-width="3" stroke-linecap="round" stroke-linejoin="round"/>
<path id="Vector_5" d="M2 30.4747C2 29.142 2.52942 27.8639 3.47179 26.9215C4.41416 25.9791 5.69229 25.4497 7.025 25.4497H63.975C65.3077 25.4497 66.5858 25.9791 67.5282 26.9215C68.4706 27.8639 69 29.142 69 30.4747V45.5497H2V30.4747Z" stroke="#484848" stroke-width="3" stroke-linecap="round" stroke-linejoin="round"/>
</g>
</svg>
