<svg width="112" height="23" viewBox="0 0 112 23" fill="none" xmlns="http://www.w3.org/2000/svg">
<g id="Group 2">
<path id="Vector" d="M8.0153 7.3886L10.8368 1.37134C11.199 0.598877 12.2455 0.598877 12.6076 1.37134L15.4291 7.3886L21.7389 8.35947C22.5485 8.48403 22.8711 9.53163 22.2851 10.1325L17.7201 14.8131L18.7974 21.4254C18.9358 22.2746 18.0891 22.922 17.3647 22.521L11.7222 19.3974L6.07974 22.521C5.35536 22.922 4.50863 22.2746 4.64697 21.4254L5.7243 14.8131L1.15939 10.1325C0.573283 9.53163 0.89595 8.48403 1.70552 8.35947L8.0153 7.3886Z" fill="#FF2966"/>
<path id="Vector_2" d="M74.612 7.3886L77.4335 1.37134C77.7957 0.598877 78.8421 0.598877 79.2043 1.37134L82.0258 7.3886L88.3356 8.35947C89.1452 8.48403 89.4678 9.53163 88.8818 10.1325L84.3168 14.8131L85.3941 21.4254C85.5325 22.2746 84.6858 22.922 83.9614 22.521L78.3189 19.3974L72.6764 22.521C71.952 22.922 71.1053 22.2746 71.2437 21.4254L72.321 14.8131L67.7561 10.1325C67.17 9.53163 67.4926 8.48403 68.3022 8.35947L74.612 7.3886Z" fill="#FF2966"/>
<path id="Vector_3" d="M29.8825 7.3886L32.704 1.37134C33.0662 0.598877 34.1127 0.598877 34.4748 1.37134L37.2963 7.3886L43.6061 8.35947C44.4157 8.48403 44.7383 9.53163 44.1523 10.1325L39.5873 14.8131L40.6646 21.4254C40.803 22.2746 39.9563 22.922 39.2319 22.521L33.5894 19.3974L27.9469 22.521C27.2225 22.922 26.3758 22.2746 26.5142 21.4254L27.5915 14.8131L23.0266 10.1325C22.4405 9.53163 22.7631 8.48403 23.5727 8.35947L29.8825 7.3886Z" fill="#FF2966"/>
<path id="Vector_4" d="M52.7448 7.3886L55.5663 1.37134C55.9285 0.598877 56.975 0.598877 57.3371 1.37134L60.1586 7.3886L66.4684 8.35947C67.278 8.48403 67.6006 9.53163 67.0146 10.1325L62.4496 14.8131L63.5269 21.4254C63.6653 22.2746 62.8186 22.922 62.0942 22.521L56.4517 19.3974L50.8092 22.521C50.0849 22.922 49.2381 22.2746 49.3765 21.4254L50.4538 14.8131L45.8889 10.1325C45.3028 9.53163 45.6254 8.48403 46.435 8.35947L52.7448 7.3886Z" fill="#FF2966"/>
<path id="Vector_5" d="M96.4801 7.3886L99.3017 1.37134C99.6638 0.598877 100.71 0.598877 101.072 1.37134L103.894 7.3886L110.204 8.35947C111.013 8.48403 111.336 9.53163 110.75 10.1325L106.185 14.8131L107.262 21.4254C107.401 22.2746 106.554 22.922 105.83 22.521L100.187 19.3974L94.5446 22.521C93.8202 22.922 92.9735 22.2746 93.1118 21.4254L94.1891 14.8131L89.6242 10.1325C89.0381 9.53163 89.3608 8.48403 90.1704 8.35947L96.4801 7.3886Z" fill="#FF2966"/>
</g>
</svg>
