<svg width="55" height="55" viewBox="0 0 55 55" fill="none" xmlns="http://www.w3.org/2000/svg">
<path id="Vector" d="M52.25 20.2632H13.75V11.5789C13.75 8.38605 16.2167 5.78947 19.25 5.78947C22.2832 5.78947 24.75 8.38605 24.75 11.5789H30.25C30.25 5.19316 25.3165 0 19.25 0C13.1835 0 8.25 5.19316 8.25 11.5789V20.2632H2.75C2.02065 20.2632 1.32118 20.5681 0.805456 21.111C0.289731 21.6539 0 22.3902 0 23.1579V28.9474C0 36.4911 4.6035 42.9087 11 45.3026V55H16.5V46.3158H38.5V55H44V45.3026C50.3965 42.9087 55 36.4911 55 28.9474V23.1579C55 22.3902 54.7103 21.6539 54.1945 21.111C53.6788 20.5681 52.9793 20.2632 52.25 20.2632ZM49.5 28.9474C49.5 35.3332 44.5665 40.5263 38.5 40.5263H16.5C10.4335 40.5263 5.5 35.3332 5.5 28.9474V26.0526H49.5V28.9474Z" fill="#484848"/>
</svg>
